<?xml version="1.0" encoding="iso-8859-1"?>
<!-- Generator: Adobe Illustrator 19.0.0, SVG Export Plug-In . SVG Version: 6.00 Build 0)  -->
<svg version="1.1" id="Layer_1" xmlns="http://www.w3.org/2000/svg" xmlns:xlink="http://www.w3.org/1999/xlink" x="0px" y="0px"
	 viewBox="0 0 512 512" style="enable-background:new 0 0 512 512;" xml:space="preserve">
<g>
	<rect x="168" y="423.7" style="fill:#42210B;" width="32" height="16"/>
	<path style="fill:#42210B;" d="M344,127.7h-64v216h64V127.7z M360,253.3v90.4h24v-16C384,300.5,375.2,274.9,360,253.3z M226.4,74.1
		L200,37.3l-26.4,36.8l26.4,5.6L226.4,74.1z M168,89.3v254.4h24V94.1L168,89.3z M152,343.7v-87.2c-13.6,20.8-24,47.2-24,71.2v16H152
		z M232,343.7V89.3l-24,4.8v249.6H232z M248,190.9c5.6,0,11.2,0,16,0v-40c-4.8,0-10.4,0-16,0V190.9z M264,206.9c-4.8,0-10.4,0-16,0
		v136.8h16V206.9z M168,455.7c0,17.6,14.4,32,32,32s32-14.4,32-32v-40h-64v8v16V455.7z M344,103.7h-64v8h64V103.7z M292.8,399.7v-16
		h16v16H352h22.4v-16h16v16H456v-16h16v16h24v-40h-48c-4,0-8-4-8-8v-16c0-61.6-30.4-119.2-80-153.6v46.4c25.6,26.4,40,61.6,40,99.2
		v24c0,4-4,8-8,8h-40h-80h-32h-80h-40c-4.8,0-8-4-8-8v-24c0-35.2,20-74.4,40-99.2v-45.6c-48,36.8-80,96-80,152.8v16c0,4-3.2,8-8,8
		H16v40h32v-16h16v16h65.6v-16h16v16H160h51.2v-16h16v16H240h32H292.8z M344,439.7h-32v-16h32v-8h-64v40c0,17.6,14.4,32,32,32
		s32-14.4,32-32V439.7z M312,79.7c-8.8,0-16-7.2-16-16c0-5.6,3.2-11.2,8-13.6V32.5l-23.2,18.4l6.4,36.8h50.4l6.4-36.8l-24-18.4v17.6
		c4.8,2.4,8,8,8,13.6C328,72.5,320.8,79.7,312,79.7z M246.4,74.9L246.4,74.9c0.8,1.6,1.6,3.2,1.6,4.8v55.2c5.6,0,10.4,0,16,0v-16
		v-24c0-4,3.2-7.2,6.4-8L264,49.3c-0.8-2.4,0.8-5.6,3.2-7.2l40-32c3.2-2.4,7.2-2.4,9.6,0l40,32c2.4,0.8,3.2,4,3.2,7.2l-6.4,38.4
		c4,0.8,6.4,4,6.4,8v24v44c59.2,36,96,101.6,96,172v8h48c4,0,8,4,8,8v56c0,4-4,8-8,8H360v40c0,26.4-21.6,48-48,48s-48-21.6-48-48
		v-40h-16v40c0,26.4-21.6,48-48,48s-48-21.6-48-48v-40H8c-4.8,0-8-4-8-8v-56c0-4,3.2-8,8-8h48v-8c0-64.8,38.4-133.6,96-172v-84
		c0-1.6,0.8-3.2,1.6-4.8l0,0l40-56c3.2-4,10.4-4,12.8,0L246.4,74.9z"/>
</g>
<path style="fill:#FF9900;" d="M264,151.7v40c-4.8,0-10.4-0.8-16,0v-40C253.6,150.9,259.2,150.9,264,151.7z"/>
<rect x="280" y="127.7" style="fill:#6CD3D8;" width="64" height="216"/>
<rect x="280" y="103.7" style="fill:#2FB4C2;" width="64" height="8"/>
<rect x="288" y="423.7" style="fill:#42210B;" width="16" height="16"/>
<path style="fill:#FFF8EF;" d="M296,63.7c0,8.8,7.2,16,16,16s16-7.2,16-16c0-5.6-3.2-11.2-8-13.6V32.5l23.2,18.4l-5.6,36.8h-50.4
	l-6.4-36.8L304,32.5v17.6C299.2,52.5,296,58.1,296,63.7z"/>
<path style="fill:#2FB4C2;" d="M304,439.7v-16h-16v16H304z M280,415.7h64v8h-32v16h32v16c0,17.6-14.4,32-32,32s-32-14.4-32-32V415.7
	z"/>
<polygon style="fill:#EE5656;" points="232,89.3 232,343.7 208,343.7 208,94.1 "/>
<polygon style="fill:#CC9966;" points="200,37.3 226.4,74.1 200,79.7 173.6,74.1 "/>
<rect x="208" y="423.7" style="fill:#42210B;" width="16" height="16"/>
<path style="fill:#D9CDC1;" d="M168,415.7v8h32v16h-32v16c0,17.6,14.4,32,32,32s32-14.4,32-32v-40H168z M224,439.7h-16v-16h16V439.7
	z"/>
<path style="fill:#FFF8EF;" d="M200,479.7c-13.6,0-24-10.4-24-24v-8h48v8C224,469.3,213.6,479.7,200,479.7z"/>
<polygon style="fill:#FF9900;" points="192,94.1 192,343.7 168,343.7 168,89.3 "/>
<path style="fill:#FF7D00;" d="M390.4,383.7h-16v16H352h-43.2v-16h-16v16H272h-32h-12.8v-16h-16v16H160h-14.4v-16h-16v16H64v-16H48
	v16H16v-40h48c4.8,0,8-4,8-8v-16c0-56.8,32-116,80-152.8v45.6c-20,24.8-40,64-40,99.2v24c0,4,3.2,8,8,8h40h80h32h80h40c4,0,8-4,8-8
	v-24c0-37.6-14.4-72-40-99.2v-46.4c49.6,34.4,80,92,80,153.6v16c0,4,4,8,8,8h48v40h-24v-16h-16v16h-65.6V383.7z"/>
<path style="fill:#FF9900;" d="M480,391.7v-16h-32v16h-49.6v-16h-32v16h-49.6v-16h-32v16h-49.6v-16h-32v16h-49.6v-16h-32v16H72v-16
	H40v16H24v-24h40c8.8,0,16-7.2,16-16v-16c0-48.8,24.8-100,64-135.2v25.6c-19.2,24-40,64-40,101.6v24c0,8.8,7.2,16,16,16h272
	c8.8,0,16-7.2,16-16v-24c0-38.4-14.4-74.4-40-102.4v-27.2c40,33.6,64,84,64,137.6v16c0,8.8,7.2,16,16,16h40v24H480z"/>
<rect x="288" y="135.7" style="fill:#2FB4C2;" width="48" height="208"/>
<g>
</g>
<g>
</g>
<g>
</g>
<g>
</g>
<g>
</g>
<g>
</g>
<g>
</g>
<g>
</g>
<g>
</g>
<g>
</g>
<g>
</g>
<g>
</g>
<g>
</g>
<g>
</g>
<g>
</g>
</svg>
